# Blender v2.79 (sub 0) OBJ File: ''
# www.blender.org
mtllib flywing.mtl
o fly_wing
v 0.003314 -0.000727 -0.006188
v 0.009689 -0.000437 -0.009675
v 0.004348 -0.001763 -0.008638
v 0.002463 0.003602 0.013267
v 0.004619 0.004031 0.016516
v 0.002432 0.004048 0.013194
v 0.009620 -0.002615 -0.013093
v 0.005251 -0.003036 -0.011083
v 0.004613 0.004482 0.016485
v 0.002503 0.003461 0.010471
v 0.002461 0.003906 0.010372
v 0.008543 0.004692 0.014490
v 0.008552 0.005153 0.014467
v 0.015415 0.002501 -0.006677
v 0.018928 0.002289 -0.008328
v 0.013867 -0.002862 -0.016084
v 0.016642 -0.002586 -0.017151
v 0.020324 -0.005618 -0.022297
v 0.011601 0.003862 -0.000434
v 0.011557 -0.004099 -0.016305
v 0.018832 0.005316 0.007025
v 0.003415 -0.001112 -0.005931
v 0.002277 0.001707 0.001701
v 0.030062 0.000280 -0.009644
v 0.031458 -0.001535 -0.014028
v 0.030143 0.000791 -0.009753
v 0.031513 -0.001026 -0.014173
v 0.027076 -0.006784 -0.023852
v 0.020370 -0.006024 -0.022001
v 0.027041 -0.006344 -0.024129
v 0.032149 -0.003520 -0.018211
v 0.027774 0.001812 -0.005786
v 0.027864 0.002319 -0.005871
v 0.025821 0.003570 -0.001791
v 0.032172 -0.003020 -0.018398
v 0.025731 0.003069 -0.001728
v 0.002201 0.002128 0.001515
v 0.030163 -0.006915 -0.023974
v 0.030134 -0.006457 -0.024238
v 0.031766 -0.005549 -0.021868
v 0.031757 -0.005069 -0.022100
v 0.025585 -0.003164 -0.019731
v 0.028490 -0.004276 -0.021279
v 0.024577 -0.000734 -0.015390
v 0.022111 0.001363 -0.010868
v 0.005029 0.004558 0.010831
v 0.006094 0.004050 0.004857
v 0.008730 0.004352 0.003670
v 0.012803 0.005498 0.011431
v 0.016157 -0.004729 -0.019685
v 0.022686 0.004632 0.002404
v 0.006277 -0.004217 -0.013253
v 0.007931 -0.004667 -0.014779
v 0.018918 0.001814 -0.008165
v 0.022088 0.000879 -0.010704
v 0.022616 0.004139 0.002452
v 0.018788 0.004832 0.007055
v 0.008040 -0.005013 -0.014461
v 0.011639 -0.004468 -0.016000
v 0.009704 -0.002992 -0.012806
v 0.006135 0.003601 0.004985
v 0.008761 0.003896 0.003793
v 0.012782 0.005028 0.011455
v 0.006393 -0.004564 -0.012939
v 0.005366 -0.003395 -0.010786
v 0.024567 -0.001216 -0.015197
v 0.025598 -0.003631 -0.019498
v 0.015428 0.002042 -0.006501
v 0.011628 0.003404 -0.000289
v 0.009758 -0.000841 -0.009423
v 0.013926 -0.003257 -0.015802
v 0.004455 -0.002137 -0.008361
v 0.016687 -0.003002 -0.016882
v 0.016215 -0.005117 -0.019385
v 0.005055 0.004105 0.010910
v 0.028501 -0.004747 -0.021043
v -0.003921 0.004105 0.010910
v -0.001329 0.003602 0.013267
v -0.003485 0.004031 0.016516
v -0.002180 -0.000727 -0.006188
v -0.002281 -0.001112 -0.005931
v -0.003214 -0.001763 -0.008638
v -0.001369 0.003461 0.010471
v -0.007409 0.004692 0.014490
v -0.003321 -0.002137 -0.008361
v -0.010423 -0.004099 -0.016305
v -0.010505 -0.004468 -0.016000
v -0.012733 -0.002862 -0.016084
v -0.012792 -0.003257 -0.015802
v -0.004117 -0.003036 -0.011083
v -0.004232 -0.003395 -0.010786
v -0.027367 -0.004747 -0.021043
v -0.030632 -0.005549 -0.021868
v -0.029029 -0.006915 -0.023974
v -0.031015 -0.003520 -0.018211
v -0.024464 -0.003631 -0.019498
v -0.025942 -0.006784 -0.023852
v -0.005001 0.003601 0.004985
v -0.001143 0.001707 0.001701
v -0.015023 -0.004729 -0.019685
v -0.006797 -0.004667 -0.014779
v -0.006906 -0.005013 -0.014461
v -0.005143 -0.004217 -0.013253
v -0.005259 -0.004564 -0.012939
v -0.024687 0.003570 -0.001791
v -0.024597 0.003069 -0.001728
v -0.021552 0.004632 0.002404
v -0.021482 0.004139 0.002452
v -0.017654 0.004832 0.007055
v -0.017699 0.005316 0.007025
v -0.029009 0.000791 -0.009753
v -0.028928 0.000280 -0.009644
v -0.026730 0.002319 -0.005871
v -0.015081 -0.005117 -0.019385
v -0.019236 -0.006024 -0.022001
v -0.019190 -0.005618 -0.022297
v -0.011669 0.005498 0.011431
v -0.011648 0.005028 0.011455
v -0.007418 0.005153 0.014467
v -0.015553 -0.003002 -0.016882
v -0.017784 0.001814 -0.008165
v -0.014294 0.002042 -0.006501
v -0.007627 0.003896 0.003793
v -0.010494 0.003404 -0.000289
v -0.008570 -0.002992 -0.012806
v -0.008624 -0.000841 -0.009423
v -0.026640 0.001812 -0.005786
v -0.020954 0.000879 -0.010704
v -0.023433 -0.001216 -0.015197
v -0.030324 -0.001535 -0.014028
v -0.008486 -0.002615 -0.013093
v -0.017794 0.002289 -0.008328
v -0.020977 0.001363 -0.010868
v -0.023443 -0.000734 -0.015390
v -0.015508 -0.002586 -0.017151
v -0.007596 0.004352 0.003670
v -0.010467 0.003862 -0.000434
v -0.014281 0.002501 -0.006677
v -0.004960 0.004050 0.004857
v -0.003895 0.004558 0.010831
v -0.001327 0.003906 0.010372
v -0.030623 -0.005069 -0.022100
v -0.031038 -0.003020 -0.018398
v -0.027356 -0.004276 -0.021279
v -0.025907 -0.006344 -0.024129
v -0.029000 -0.006457 -0.024238
v -0.001067 0.002128 0.001515
v -0.003479 0.004482 0.016485
v -0.001298 0.004048 0.013194
v -0.024451 -0.003164 -0.019731
v -0.030379 -0.001026 -0.014173
v -0.008555 -0.000437 -0.009675
vt 0.543458 0.754312
vt 0.644313 0.761412
vt 0.559817 0.728889
vt 0.529994 0.860525
vt 0.564108 0.871055
vt 0.529500 0.871487
vt 0.643230 0.707992
vt 0.574110 0.697651
vt 0.564014 0.882133
vt 0.530627 0.857081
vt 0.529965 0.867992
vt 0.626183 0.887287
vt 0.626323 0.898589
vt 0.734896 0.833525
vt 0.790482 0.828302
vt 0.710414 0.701928
vt 0.754309 0.708683
vt 0.812570 0.634289
vt 0.674563 0.866921
vt 0.673873 0.671556
vt 0.788969 0.902580
vt 0.545057 0.744856
vt 0.527058 0.814037
vt 0.966632 0.779025
vt 0.988717 0.734469
vt 0.967915 0.791556
vt 0.989580 0.746960
vt 0.919385 0.605674
vt 0.813296 0.624330
vt 0.918838 0.616489
vt 0.999647 0.685772
vt 0.930423 0.816619
vt 0.931847 0.829048
vt 0.899524 0.859740
vt 0.000000 0.698036
vt 0.898116 0.847447
vt 0.525851 0.824374
vt 0.968218 0.602473
vt 0.967771 0.613697
vt 0.993577 0.635985
vt 0.993441 0.647774
vt 0.895800 0.694509
vt 0.941758 0.667229
vt 0.879856 0.754142
vt 0.840832 0.805602
vt 0.570596 0.883997
vt 0.587433 0.871517
vt 0.629146 0.878941
vt 0.693586 0.907058
vt 0.746643 0.656107
vt 0.849934 0.885802
vt 0.590328 0.668674
vt 0.616508 0.657639
vt 0.790316 0.816667
vt 0.840465 0.793723
vt 0.848833 0.873707
vt 0.788258 0.890718
vt 0.618233 0.649136
vt 0.675161 0.662515
vt 0.644555 0.698724
vt 0.588093 0.860497
vt 0.629638 0.867736
vt 0.693242 0.895515
vt 0.592174 0.660157
vt 0.575917 0.688828
vt 0.879693 0.742306
vt 0.896004 0.683054
vt 0.735105 0.822265
vt 0.674991 0.855680
vt 0.645408 0.751499
vt 0.711347 0.692225
vt 0.561504 0.719715
vt 0.755020 0.698477
vt 0.747564 0.646583
vt 0.570998 0.872874
vt 0.941933 0.655659
vt 0.429002 0.872874
vt 0.470006 0.860525
vt 0.435892 0.871055
vt 0.456542 0.754312
vt 0.454943 0.744856
vt 0.440183 0.728889
vt 0.469373 0.857081
vt 0.373817 0.887287
vt 0.438496 0.719715
vt 0.326127 0.671556
vt 0.324839 0.662515
vt 0.289586 0.701928
vt 0.288653 0.692225
vt 0.425890 0.697651
vt 0.424083 0.688828
vt 0.058066 0.655659
vt 0.006423 0.635985
vt 0.031782 0.602473
vt 0.000353 0.685772
vt 0.103996 0.683054
vt 0.080615 0.605674
vt 0.411907 0.860497
vt 0.472942 0.814037
vt 0.253357 0.656107
vt 0.383492 0.657639
vt 0.381767 0.649136
vt 0.409672 0.668674
vt 0.407826 0.660157
vt 0.100476 0.859740
vt 0.101884 0.847447
vt 0.150066 0.885802
vt 0.151167 0.873707
vt 0.211742 0.890718
vt 0.211031 0.902580
vt 0.032085 0.791556
vt 0.033368 0.779025
vt 0.068153 0.829048
vt 0.252436 0.646583
vt 0.186704 0.624330
vt 0.187430 0.634289
vt 0.306414 0.907058
vt 0.306758 0.895515
vt 0.373677 0.898589
vt 0.244980 0.698477
vt 0.209684 0.816667
vt 0.264895 0.822265
vt 0.370362 0.867736
vt 0.325009 0.855680
vt 0.355445 0.698724
vt 0.354592 0.751499
vt 0.069577 0.816619
vt 0.159535 0.793723
vt 0.120307 0.742306
vt 0.011283 0.734469
vt 0.356770 0.707992
vt 0.209518 0.828302
vt 0.159168 0.805602
vt 0.120144 0.754142
vt 0.245691 0.708683
vt 0.370854 0.878941
vt 0.325437 0.866921
vt 0.265104 0.833525
vt 0.412567 0.871517
vt 0.429404 0.883997
vt 0.470035 0.867992
vt 0.006559 0.647774
vt 0.000000 0.698036
vt 0.058242 0.667229
vt 0.081162 0.616489
vt 0.032229 0.613697
vt 0.474149 0.824374
vt 0.435986 0.882133
vt 0.470500 0.871487
vt 0.104200 0.694509
vt 0.010420 0.746960
vt 0.355687 0.761412
vn -0.8504 0.3755 -0.3684
vn -0.2602 0.8521 -0.4541
vn -0.8264 0.3152 -0.4665
vn -0.6464 -0.7160 0.2636
vn -0.1578 -0.5749 0.8029
vn -0.8066 0.5631 0.1795
vn -0.3245 0.7796 -0.5356
vn -0.8414 0.2465 -0.4809
vn -0.2552 0.5861 0.7689
vn -0.5876 -0.8039 0.0917
vn -0.7990 0.5985 -0.0571
vn 0.4501 -0.6247 0.6380
vn 0.2899 0.7457 0.5998
vn -0.1347 0.9327 -0.3344
vn -0.0588 0.9367 -0.3451
vn -0.4288 0.4783 -0.7664
vn -0.1536 0.8416 -0.5178
vn -0.3750 0.1597 -0.9131
vn -0.1397 0.9564 -0.2565
vn -0.1478 0.0223 -0.9887
vn 0.5124 0.7295 0.4530
vn -0.5215 -0.8365 0.1682
vn -0.6085 -0.7644 0.2131
vn 0.5763 -0.6395 0.5088
vn 0.6260 -0.6480 0.4338
vn 0.7550 0.6502 0.0846
vn 0.7735 0.6271 -0.0916
vn -0.1092 -0.9695 -0.2194
vn -0.2280 -0.9590 -0.1679
vn -0.1352 0.1627 -0.9774
vn 0.6925 -0.6347 0.3429
vn 0.5152 -0.6775 0.5249
vn 0.7123 0.6872 0.1426
vn 0.6933 0.6782 0.2435
vn 0.7673 0.5794 -0.2748
vn 0.5392 -0.6637 0.5184
vn -0.8163 0.5304 -0.2287
vn 0.3680 -0.8903 -0.2680
vn 0.3558 0.1370 -0.9245
vn 0.7080 -0.6962 0.1181
vn 0.7151 0.4420 -0.5416
vn -0.0328 0.8491 -0.5271
vn 0.0452 0.8409 -0.5392
vn -0.0228 0.8954 -0.4446
vn -0.0058 0.9184 -0.3955
vn -0.1602 0.9845 -0.0717
vn -0.2147 0.9573 -0.1935
vn -0.1655 0.9663 -0.1970
vn 0.3609 0.7658 0.5321
vn -0.6527 0.1220 -0.7477
vn 0.5893 0.7371 0.3309
vn -0.7746 0.0728 -0.6282
vn -0.5257 -0.0286 -0.8502
vn 0.0571 -0.9364 0.3461
vn 0.0044 -0.9179 0.3967
vn 0.5339 -0.6489 0.5421
vn 0.4936 -0.6229 0.6068
vn -0.0983 -0.9927 -0.0700
vn 0.2527 -0.9405 -0.2273
vn 0.3245 -0.7793 0.5360
vn 0.2133 -0.9575 0.1939
vn 0.1644 -0.9663 0.1978
vn 0.4631 -0.6388 0.6143
vn -0.3643 -0.9208 0.1391
vn -0.4301 -0.8614 0.2700
vn 0.0203 -0.8950 0.4455
vn 0.0303 -0.8487 0.5280
vn 0.1331 -0.9328 0.3348
vn 0.1385 -0.9564 0.2570
vn 0.2598 -0.8520 0.4544
vn 0.1004 -0.9934 0.0543
vn -0.4310 -0.8732 0.2275
vn 0.1521 -0.8413 0.5187
vn -0.4056 -0.9138 0.0207
vn 0.1595 -0.9845 0.0724
vn -0.0467 -0.8406 0.5396
vn -0.1595 -0.9845 0.0724
vn 0.6464 -0.7160 0.2636
vn 0.1578 -0.5749 0.8029
vn 0.8504 0.3755 -0.3684
vn 0.5215 -0.8365 0.1682
vn 0.8264 0.3152 -0.4665
vn 0.5876 -0.8039 0.0917
vn -0.4501 -0.6247 0.6380
vn 0.4310 -0.8732 0.2275
vn 0.1478 0.0223 -0.9887
vn -0.2527 -0.9405 -0.2273
vn 0.4288 0.4783 -0.7664
vn -0.1004 -0.9934 0.0543
vn 0.8414 0.2465 -0.4809
vn 0.4301 -0.8614 0.2700
vn 0.0467 -0.8406 0.5396
vn -0.7080 -0.6962 0.1181
vn -0.3680 -0.8903 -0.2680
vn -0.6925 -0.6347 0.3429
vn -0.0303 -0.8487 0.5280
vn 0.1092 -0.9695 -0.2194
vn -0.2133 -0.9575 0.1939
vn 0.6085 -0.7644 0.2131
vn 0.6527 0.1220 -0.7477
vn 0.5257 -0.0286 -0.8502
vn 0.0983 -0.9927 -0.0700
vn 0.7746 0.0728 -0.6282
vn 0.3643 -0.9208 0.1391
vn -0.6933 0.6782 0.2435
vn -0.5392 -0.6637 0.5184
vn -0.5893 0.7371 0.3309
vn -0.5339 -0.6489 0.5421
vn -0.4936 -0.6229 0.6068
vn -0.5124 0.7295 0.4530
vn -0.7550 0.6502 0.0846
vn -0.5763 -0.6395 0.5088
vn -0.7123 0.6872 0.1426
vn 0.4056 -0.9138 0.0207
vn 0.2280 -0.9590 -0.1679
vn 0.3750 0.1597 -0.9131
vn -0.3609 0.7658 0.5321
vn -0.4631 -0.6388 0.6143
vn -0.2899 0.7457 0.5998
vn -0.1521 -0.8413 0.5187
vn -0.0571 -0.9364 0.3461
vn -0.1331 -0.9328 0.3348
vn -0.1644 -0.9663 0.1978
vn -0.1385 -0.9564 0.2570
vn -0.3245 -0.7793 0.5360
vn -0.2598 -0.8520 0.4544
vn -0.5152 -0.6775 0.5249
vn -0.0044 -0.9179 0.3967
vn -0.0203 -0.8950 0.4455
vn -0.6260 -0.6480 0.4338
vn 0.3245 0.7796 -0.5356
vn 0.0588 0.9367 -0.3451
vn 0.0058 0.9184 -0.3955
vn 0.0228 0.8954 -0.4446
vn 0.1536 0.8416 -0.5178
vn 0.1655 0.9663 -0.1970
vn 0.1397 0.9564 -0.2565
vn 0.1347 0.9327 -0.3344
vn 0.2147 0.9573 -0.1935
vn 0.1602 0.9845 -0.0717
vn 0.7990 0.5985 -0.0571
vn -0.7151 0.4420 -0.5416
vn -0.7673 0.5794 -0.2748
vn -0.0452 0.8409 -0.5392
vn 0.1352 0.1627 -0.9774
vn -0.3558 0.1370 -0.9245
vn 0.8163 0.5304 -0.2287
vn 0.2552 0.5861 0.7689
vn 0.8066 0.5631 0.1795
vn 0.0328 0.8491 -0.5271
vn -0.7735 0.6272 -0.0916
vn 0.2602 0.8521 -0.4541
usemtl None
s 1
f 1/1/1 2/2/2 3/3/3
f 4/4/4 5/5/5 6/6/6
f 3/3/3 7/7/7 8/8/8
f 7/7/7 3/3/3 2/2/2
f 5/5/5 9/9/9 6/6/6
f 10/10/10 4/4/4 11/11/11
f 4/4/4 6/6/6 11/11/11
f 5/5/5 12/12/12 9/9/9
f 12/12/12 13/13/13 9/9/9
f 14/14/14 15/15/15 16/16/16
f 14/14/14 2/2/2 1/1/1
f 17/17/17 15/15/15 18/18/18
f 15/15/15 17/17/17 16/16/16
f 19/19/19 14/14/14 1/1/1
f 20/20/20 7/7/7 16/16/16
f 16/16/16 7/7/7 2/2/2
f 21/21/21 14/14/14 19/19/19
f 16/16/16 2/2/2 14/14/14
f 22/22/22 23/23/23 1/1/1
f 24/24/24 25/25/25 26/26/26
f 25/25/25 27/27/27 26/26/26
f 28/28/28 29/29/29 30/30/30
f 29/29/29 18/18/18 30/30/30
f 25/25/25 31/31/31 27/27/27
f 32/32/32 33/33/33 34/34/34
f 32/32/32 24/24/24 33/33/33
f 31/31/31 35/35/35 27/27/27
f 36/36/36 32/32/32 34/34/34
f 10/10/10 11/11/11 37/37/37
f 38/38/38 28/28/28 39/39/39
f 23/23/23 37/37/37 1/1/1
f 23/23/23 10/10/10 37/37/37
f 28/28/28 30/30/30 39/39/39
f 40/40/40 38/38/38 41/41/41
f 38/38/38 39/39/39 41/41/41
f 31/31/31 40/40/40 35/35/35
f 40/40/40 41/41/41 35/35/35
f 42/42/42 43/43/43 30/30/30
f 18/18/18 42/42/42 30/30/30
f 43/43/43 41/41/41 39/39/39
f 35/35/35 43/43/43 42/42/42
f 26/26/26 27/27/27 44/44/44
f 18/18/18 44/44/44 42/42/42
f 44/44/44 45/45/45 33/33/33
f 44/44/44 27/27/27 35/35/35
f 42/42/42 44/44/44 35/35/35
f 11/11/11 6/6/6 46/46/46
f 1/1/1 37/37/37 47/47/47
f 46/46/46 6/6/6 9/9/9
f 13/13/13 46/46/46 9/9/9
f 47/47/47 37/37/37 11/11/11
f 30/30/30 43/43/43 39/39/39
f 35/35/35 41/41/41 43/43/43
f 46/46/46 47/47/47 11/11/11
f 13/13/13 47/47/47 46/46/46
f 34/34/34 33/33/33 45/45/45
f 48/48/48 47/47/47 49/49/49
f 1/1/1 48/48/48 19/19/19
f 1/1/1 47/47/47 48/48/48
f 49/49/49 47/47/47 13/13/13
f 21/21/21 48/48/48 49/49/49
f 16/16/16 17/17/17 50/50/50
f 21/21/21 15/15/15 14/14/14
f 19/19/19 48/48/48 21/21/21
f 17/17/17 18/18/18 50/50/50
f 21/21/21 51/51/51 15/15/15
f 15/15/15 51/51/51 34/34/34
f 44/44/44 33/33/33 26/26/26
f 18/18/18 45/45/45 44/44/44
f 45/45/45 15/15/15 34/34/34
f 52/52/52 7/7/7 53/53/53
f 8/8/8 7/7/7 52/52/52
f 18/18/18 15/15/15 45/45/45
f 20/20/20 53/53/53 7/7/7
f 54/54/54 55/55/55 36/36/36
f 54/54/54 29/29/29 55/55/55
f 56/56/56 57/57/57 54/54/54
f 56/56/56 54/54/54 36/36/36
f 58/58/58 59/59/59 60/60/60
f 61/61/61 22/22/22 62/62/62
f 61/61/61 63/63/63 12/12/12
f 60/60/60 64/64/64 58/58/58
f 60/60/60 65/65/65 64/64/64
f 25/25/25 66/66/66 31/31/31
f 66/66/66 67/67/67 31/31/31
f 67/67/67 29/29/29 28/28/28
f 25/25/25 24/24/24 66/66/66
f 66/66/66 29/29/29 67/67/67
f 32/32/32 66/66/66 24/24/24
f 55/55/55 29/29/29 66/66/66
f 55/55/55 66/66/66 32/32/32
f 32/32/32 36/36/36 55/55/55
f 61/61/61 62/62/62 63/63/63
f 68/68/68 57/57/57 69/69/69
f 70/70/70 71/71/71 68/68/68
f 70/70/70 68/68/68 22/22/22
f 68/68/68 69/69/69 22/22/22
f 60/60/60 59/59/59 71/71/71
f 72/72/72 60/60/60 70/70/70
f 70/70/70 22/22/22 72/72/72
f 60/60/60 71/71/71 70/70/70
f 60/60/60 72/72/72 65/65/65
f 62/62/62 69/69/69 57/57/57
f 29/29/29 73/73/73 74/74/74
f 62/62/62 22/22/22 69/69/69
f 62/62/62 57/57/57 63/63/63
f 73/73/73 71/71/71 74/74/74
f 73/73/73 54/54/54 71/71/71
f 54/54/54 68/68/68 71/71/71
f 54/54/54 57/57/57 68/68/68
f 54/54/54 73/73/73 29/29/29
f 12/12/12 63/63/63 13/13/13
f 63/63/63 49/49/49 13/13/13
f 64/64/64 65/65/65 52/52/52
f 65/65/65 8/8/8 52/52/52
f 63/63/63 57/57/57 49/49/49
f 74/74/74 50/50/50 18/18/18
f 74/74/74 71/71/71 50/50/50
f 57/57/57 21/21/21 49/49/49
f 29/29/29 74/74/74 18/18/18
f 56/56/56 51/51/51 21/21/21
f 56/56/56 36/36/36 51/51/51
f 24/24/24 26/26/26 33/33/33
f 57/57/57 56/56/56 21/21/21
f 36/36/36 34/34/34 51/51/51
f 58/58/58 64/64/64 53/53/53
f 64/64/64 52/52/52 53/53/53
f 59/59/59 58/58/58 20/20/20
f 58/58/58 53/53/53 20/20/20
f 71/71/71 16/16/16 50/50/50
f 61/61/61 75/75/75 10/10/10
f 61/61/61 12/12/12 75/75/75
f 23/23/23 22/22/22 61/61/61
f 23/23/23 61/61/61 10/10/10
f 76/76/76 28/28/28 38/38/38
f 76/76/76 31/31/31 67/67/67
f 76/76/76 67/67/67 28/28/28
f 40/40/40 31/31/31 76/76/76
f 40/40/40 76/76/76 38/38/38
f 65/65/65 72/72/72 8/8/8
f 72/72/72 3/3/3 8/8/8
f 71/71/71 59/59/59 16/16/16
f 59/59/59 20/20/20 16/16/16
f 72/72/72 22/22/22 3/3/3
f 75/75/75 12/12/12 5/5/5
f 4/4/4 10/10/10 75/75/75
f 22/22/22 1/1/1 3/3/3
f 4/4/4 75/75/75 5/5/5
f 77/77/77 78/78/78 79/79/79
f 80/80/80 81/81/81 82/82/82
f 83/83/83 78/78/78 77/77/77
f 84/84/84 77/77/77 79/79/79
f 81/81/81 85/85/85 82/82/82
f 86/86/86 87/87/87 88/88/88
f 87/87/87 89/89/89 88/88/88
f 82/82/82 85/85/85 90/90/90
f 85/85/85 91/91/91 90/90/90
f 92/92/92 93/93/93 94/94/94
f 95/95/95 93/93/93 92/92/92
f 96/96/96 92/92/92 97/97/97
f 95/95/95 92/92/92 96/96/96
f 97/97/97 92/92/92 94/94/94
f 98/98/98 99/99/99 83/83/83
f 81/81/81 99/99/99 98/98/98
f 84/84/84 98/98/98 77/77/77
f 77/77/77 98/98/98 83/83/83
f 88/88/88 89/89/89 100/100/100
f 101/101/101 102/102/102 86/86/86
f 102/102/102 87/87/87 86/86/86
f 103/103/103 104/104/104 101/101/101
f 104/104/104 102/102/102 101/101/101
f 105/105/105 106/106/106 107/107/107
f 108/108/108 109/109/109 110/110/110
f 111/111/111 112/112/112 113/113/113
f 106/106/106 108/108/108 107/107/107
f 107/107/107 108/108/108 110/110/110
f 114/114/114 115/115/115 116/116/116
f 110/110/110 109/109/109 117/117/117
f 89/89/89 114/114/114 100/100/100
f 100/100/100 114/114/114 116/116/116
f 109/109/109 118/118/118 117/117/117
f 90/90/90 91/91/91 103/103/103
f 91/91/91 104/104/104 103/103/103
f 117/117/117 118/118/118 119/119/119
f 118/118/118 84/84/84 119/119/119
f 120/120/120 121/121/121 115/115/115
f 109/109/109 121/121/121 122/122/122
f 122/122/122 121/121/121 89/89/89
f 121/121/121 120/120/120 89/89/89
f 89/89/89 120/120/120 114/114/114
f 109/109/109 123/123/123 118/118/118
f 81/81/81 123/123/123 124/124/124
f 120/120/120 115/115/115 114/114/114
f 124/124/124 123/123/123 109/109/109
f 85/85/85 125/125/125 91/91/91
f 89/89/89 125/125/125 126/126/126
f 81/81/81 126/126/126 85/85/85
f 125/125/125 85/85/85 126/126/126
f 87/87/87 125/125/125 89/89/89
f 124/124/124 122/122/122 81/81/81
f 122/122/122 126/126/126 81/81/81
f 89/89/89 126/126/126 122/122/122
f 109/109/109 122/122/122 124/124/124
f 123/123/123 98/98/98 118/118/118
f 106/106/106 127/127/127 128/128/128
f 129/129/129 128/128/128 127/127/127
f 115/115/115 128/128/128 129/129/129
f 129/129/129 127/127/127 112/112/112
f 115/115/115 129/129/129 96/96/96
f 112/112/112 130/130/130 129/129/129
f 115/115/115 96/96/96 97/97/97
f 96/96/96 129/129/129 95/95/95
f 129/129/129 130/130/130 95/95/95
f 91/91/91 125/125/125 104/104/104
f 104/104/104 125/125/125 102/102/102
f 118/118/118 98/98/98 84/84/84
f 81/81/81 98/98/98 123/123/123
f 87/87/87 102/102/102 125/125/125
f 121/121/121 108/108/108 106/106/106
f 109/109/109 108/108/108 121/121/121
f 115/115/115 121/121/121 128/128/128
f 128/128/128 121/121/121 106/106/106
f 101/101/101 86/86/86 131/131/131
f 132/132/132 116/116/116 133/133/133
f 131/131/131 90/90/90 103/103/103
f 131/131/131 103/103/103 101/101/101
f 132/132/132 133/133/133 105/105/105
f 133/133/133 116/116/116 134/134/134
f 113/113/113 134/134/134 111/111/111
f 107/107/107 132/132/132 105/105/105
f 107/107/107 110/110/110 132/132/132
f 116/116/116 135/135/135 100/100/100
f 136/136/136 137/137/137 110/110/110
f 132/132/132 110/110/110 138/138/138
f 135/135/135 88/88/88 100/100/100
f 136/136/136 110/110/110 117/117/117
f 139/139/139 117/117/117 119/119/119
f 139/139/139 80/80/80 136/136/136
f 136/136/136 80/80/80 137/137/137
f 139/139/139 136/136/136 117/117/117
f 113/113/113 105/105/105 133/133/133
f 139/139/139 119/119/119 140/140/140
f 139/139/139 140/140/140 141/141/141
f 142/142/142 143/143/143 144/144/144
f 144/144/144 145/145/145 146/146/146
f 147/147/147 139/139/139 141/141/141
f 140/140/140 119/119/119 148/148/148
f 149/149/149 140/140/140 148/148/148
f 147/147/147 80/80/80 139/139/139
f 149/149/149 141/141/141 140/140/140
f 134/134/134 150/150/150 143/143/143
f 151/151/151 134/134/134 143/143/143
f 133/133/133 134/134/134 113/113/113
f 134/134/134 116/116/116 150/150/150
f 151/151/151 111/111/111 134/134/134
f 144/144/144 143/143/143 150/150/150
f 142/142/142 144/144/144 146/146/146
f 150/150/150 116/116/116 145/145/145
f 144/144/144 150/150/150 145/145/145
f 142/142/142 93/93/93 143/143/143
f 93/93/93 95/95/95 143/143/143
f 146/146/146 94/94/94 142/142/142
f 94/94/94 93/93/93 142/142/142
f 145/145/145 97/97/97 146/146/146
f 83/83/83 99/99/99 147/147/147
f 147/147/147 99/99/99 80/80/80
f 97/97/97 94/94/94 146/146/146
f 141/141/141 83/83/83 147/147/147
f 127/127/127 106/106/106 105/105/105
f 143/143/143 95/95/95 151/151/151
f 112/112/112 127/127/127 113/113/113
f 113/113/113 127/127/127 105/105/105
f 95/95/95 130/130/130 151/151/151
f 116/116/116 115/115/115 145/145/145
f 115/115/115 97/97/97 145/145/145
f 151/151/151 130/130/130 111/111/111
f 130/130/130 112/112/112 111/111/111
f 99/99/99 81/81/81 80/80/80
f 152/152/152 88/88/88 138/138/138
f 138/138/138 110/110/110 137/137/137
f 131/131/131 88/88/88 152/152/152
f 131/131/131 86/86/86 88/88/88
f 138/138/138 137/137/137 80/80/80
f 135/135/135 132/132/132 88/88/88
f 132/132/132 135/135/135 116/116/116
f 152/152/152 138/138/138 80/80/80
f 132/132/132 138/138/138 88/88/88
f 119/119/119 84/84/84 148/148/148
f 84/84/84 79/79/79 148/148/148
f 149/149/149 78/78/78 141/141/141
f 78/78/78 83/83/83 141/141/141
f 148/148/148 79/79/79 149/149/149
f 82/82/82 131/131/131 152/152/152
f 131/131/131 82/82/82 90/90/90
f 79/79/79 78/78/78 149/149/149
f 152/152/152 80/80/80 82/82/82
